<svg width="200" height="135" viewBox="0 0 200 135" fill="none" xmlns="http://www.w3.org/2000/svg">
<g filter="url(#filter0_d_17_778)">
<path d="M154.868 70.5473C158.753 70.5473 161.991 71.8383 163.934 74.4201C166.525 77.0019 167.82 80.2292 167.82 83.4564L116.01 102.82L70.6771 89.911V31.8201H82.9819L130.258 49.2473C133.496 50.5382 135.439 53.1201 135.439 56.3473C135.439 58.2837 134.791 60.2201 133.496 61.511C132.201 62.8019 130.258 64.0928 127.668 64.0928H109.534L98.5248 59.5746L96.5819 65.3837L109.534 70.5473H154.868ZM31.82 31.8201H57.7248V102.82H31.82V31.8201Z" fill="url(#paint0_radial_17_778)"/>
</g>
<defs>
<filter id="filter0_d_17_778" x="-9.53674e-07" y="6.77109e-05" width="199.64" height="134.64" filterUnits="userSpaceOnUse" color-interpolation-filters="sRGB">
<feFlood flood-opacity="0" result="BackgroundImageFix"/>
<feColorMatrix in="SourceAlpha" type="matrix" values="0 0 0 0 0 0 0 0 0 0 0 0 0 0 0 0 0 0 127 0" result="hardAlpha"/>
<feMorphology radius="3.88" operator="erode" in="SourceAlpha" result="effect1_dropShadow_17_778"/>
<feOffset/>
<feGaussianBlur stdDeviation="17.85"/>
<feComposite in2="hardAlpha" operator="out"/>
<feColorMatrix type="matrix" values="0 0 0 0 0.206146 0 0 0 0 0.54316 0 0 0 0 1 0 0 0 1 0"/>
<feBlend mode="normal" in2="BackgroundImageFix" result="effect1_dropShadow_17_778"/>
<feBlend mode="normal" in="SourceGraphic" in2="effect1_dropShadow_17_778" result="shape"/>
</filter>
<radialGradient id="paint0_radial_17_778" cx="0" cy="0" r="1" gradientTransform="matrix(136.386 -5.25925 -88.6635 1002.93 34.1382 79.1534)" gradientUnits="userSpaceOnUse">
<stop stop-color="#9EA6EB"/>
<stop offset="0.562504" stop-color="#9AB8EC"/>
<stop offset="1" stop-color="#97CCEE"/>
</radialGradient>
</defs>
</svg>
